<svg width="820" height="159" viewBox="0 0 820 159" fill="none" xmlns="http://www.w3.org/2000/svg">
<path d="M64.13 24.8504C54.48 24.8504 51.69 29.1304 51.69 38.5704V54.2304H77.43L74.85 79.5304H51.7V156.31H20.81V79.5304H0V54.2304H20.81V39.0004C20.81 13.4804 31.1 0.000402047 59.81 0.000402047C65.8263 -0.0137088 71.8377 0.343637 77.81 1.0704V24.8804L64.13 24.8504Z" fill="#1877F2"/>
<path d="M79.5701 102.05C79.5701 73.5304 93.0801 52.0504 121.39 52.0504C136.83 52.0504 146.26 59.9904 150.77 69.8504V54.2304H180.36V156.31H150.77V140.87C146.48 150.74 136.83 158.46 121.39 158.46C93.0801 158.46 79.5701 137.01 79.5701 108.46V102.05ZM110.45 108.92C110.45 124.14 116.02 134.22 130.39 134.22C143.05 134.22 149.48 125 149.48 110.42V100.17C149.48 85.5904 143.05 76.3704 130.39 76.3704C116.02 76.3704 110.45 86.4504 110.45 101.67V108.92Z" fill="#1877F2"/>
<path d="M244.7 52.0804C256.7 52.0804 268.07 54.6604 274.29 58.9404L267.43 80.8204C260.996 77.7565 253.966 76.1451 246.84 76.1004C230.11 76.1004 222.84 85.7504 222.84 102.27V108.27C222.84 124.79 230.13 134.44 246.84 134.44C253.966 134.396 260.996 132.784 267.43 129.72L274.29 151.59C268.07 155.88 256.71 158.46 244.7 158.46C208.45 158.46 191.94 138.94 191.94 107.63V102.91C191.94 71.6004 208.45 52.0804 244.7 52.0804Z" fill="#1877F2"/>
<path d="M278.36 109.17V100.17C278.36 71.2204 294.87 52.1704 328.55 52.1704C360.29 52.1704 374.23 71.4704 374.23 99.7804V116.08H309.23C309.88 130.02 316.1 136.24 333.23 136.24C344.82 136.24 357.04 133.88 366.05 130.02L371.7 151.17C363.55 155.47 346.82 158.68 332.03 158.68C292.94 158.67 278.36 139.17 278.36 109.17ZM309.24 95.8704H346.56V93.3004C346.56 82.1504 342.06 73.3004 328.56 73.3004C314.61 73.3104 309.24 82.1104 309.24 95.8304V95.8704Z" fill="#1877F2"/>
<path d="M488.7 108.49C488.7 137.01 474.98 158.49 446.7 158.49C431.26 158.49 420.54 150.77 416.25 140.9V156.34H387.09V2.97041L417.97 0.17041V68.3704C422.47 59.3704 432.34 52.0704 446.71 52.0704C475.02 52.0704 488.71 73.5204 488.71 102.07L488.7 108.49ZM457.82 101.41C457.82 87.0404 452.25 76.3204 437.45 76.3204C424.79 76.3204 417.93 85.3204 417.93 99.9104V110.63C417.93 125.21 424.79 134.22 437.45 134.22C452.25 134.22 457.82 123.5 457.82 109.13V101.41Z" fill="#1877F2"/>
<path d="M499.03 107.84V102.7C499.03 73.3104 515.76 52.0804 549.86 52.0804C583.96 52.0804 600.7 73.3104 600.7 102.7V107.84C600.7 137.22 583.97 158.46 549.87 158.46C515.77 158.46 499.03 137.22 499.03 107.84ZM569.81 100.55C569.81 87.0404 564.23 76.3204 549.81 76.3204C535.39 76.3204 529.86 87.0404 529.86 100.55V109.99C529.86 123.5 535.44 134.22 549.81 134.22C564.18 134.22 569.81 123.5 569.81 109.99V100.55Z" fill="#1877F2"/>
<path d="M610.97 107.84V102.7C610.97 73.3104 627.7 52.0804 661.8 52.0804C695.9 52.0804 712.63 73.3104 712.63 102.7V107.84C712.63 137.22 695.9 158.46 661.8 158.46C627.7 158.46 610.97 137.22 610.97 107.84ZM681.75 100.55C681.75 87.0404 676.17 76.3204 661.8 76.3204C647.43 76.3204 641.86 87.0404 641.86 100.55V109.99C641.86 123.5 647.43 134.22 661.8 134.22C676.17 134.22 681.75 123.5 681.75 109.99V100.55Z" fill="#1877F2"/>
<path d="M755.09 102.91L785.54 54.2304H818.35L786.4 104.63L819.64 156.31H786.83L755.09 106.31V156.31H724.2V2.97041L755.09 0.17041V102.91Z" fill="#1877F2"/>
</svg>
